# xmcd CD database file
#
# Track frame offsets:
#	150
#	23053
#	37230
#	54976
#	72557
#	84161
#	99732
#	116147
#	134380
#	165642
#	186227
#	206469
#	221219
#	236483
#	253557
#	272060
#	293888
#
# Disc length: 4113 seconds
#
# Revision: 0
# Processed by: cddbd v1.5PL3 Copyright (c) Steve Scherf et al.
# Submitted via: CDex 1.50beta10
#
DISCID=02100f11
DTITLE=Rosemarry Clooney - Rosemarry Clooney
DYEAR=1999
DGENRE=Jazz
TTITLE0=The Way We Were
TTITLE1=Danny Boy
TTITLE2=Sweet Kentucky Ham
TTITLE3=Do You Know What It Means To Miss New Orleans
TTITLE4=Mambo Italiano
TTITLE5=They Can't Take That Away From Me
TTITLE6=The Glory Of Love
TTITLE7=As Time Goes By
TTITLE8=Brazil
TTITLE9=Bewitched Bothered And Bewidered
TTITLE10=Corcovado
TTITLE11=Waters Of March
TTITLE12=Lullaby Of Broadway
TTITLE13=I'm Beginning To See The Light
TTITLE14=Still Crazy After These Years
TTITLE15=Autumn In New York
TTITLE16=White Christmas
EXTD=YEAR: 1999
EXTT0=
EXTT1=
EXTT2=
EXTT3=
EXTT4=
EXTT5=
EXTT6=
EXTT7=
EXTT8=
EXTT9=
EXTT10=
EXTT11=
EXTT12=
EXTT13=
EXTT14=
EXTT15=
EXTT16=
PLAYORDER=
